<?xml version="1.0" encoding="utf-8"?>
<!-- Generator: Adobe Illustrator 16.0.4, SVG Export Plug-In . SVG Version: 6.00 Build 0)  -->
<!DOCTYPE svg PUBLIC "-//W3C//DTD SVG 1.1//EN" "http://www.w3.org/Graphics/SVG/1.1/DTD/svg11.dtd">
<svg version="1.1" id="Layer_1" xmlns="http://www.w3.org/2000/svg" xmlns:xlink="http://www.w3.org/1999/xlink" x="0px" y="0px"
	 width="144px" height="144px" viewBox="0 0 144 144" enable-background="new 0 0 144 144" xml:space="preserve">
<g>
	<path fill="#EE9735" d="M42.1,125.385c3.522,0,6.39-2.861,6.39-6.387s-2.866-6.389-6.39-6.389c-3.527,0-6.387,2.861-6.387,6.389
		C35.713,122.523,38.573,125.385,42.1,125.385z M42.1,115.803c1.763,0,3.191,1.432,3.191,3.195s-1.428,3.191-3.191,3.191
		c-1.766,0-3.194-1.428-3.194-3.191S40.334,115.803,42.1,115.803z"/>
	<path fill="#EE9735" d="M95.42,125.385c3.529,0,6.388-2.861,6.388-6.387s-2.858-6.389-6.388-6.389
		c-3.521,0-6.381,2.861-6.381,6.389C89.039,122.523,91.898,125.385,95.42,125.385z M95.42,115.803c1.765,0,3.197,1.432,3.197,3.195
		s-1.433,3.191-3.197,3.191c-1.762,0-3.19-1.428-3.19-3.191S93.658,115.803,95.42,115.803z"/>
	<path fill="#EE9735" d="M46.264,72.228c0.333,0.334,0.823,0.456,1.273,0.319c0.451-0.137,0.79-0.51,0.881-0.972l2.946-14.813
		c0.083-0.418-0.048-0.85-0.35-1.151c-0.301-0.302-0.732-0.429-1.151-0.35L35.05,58.208c-0.462,0.092-0.835,0.431-0.972,0.881
		s-0.014,0.94,0.319,1.273l3.18,3.18c-3.311,4.369-5.055,9.466-5.055,14.812c0,7.105,3.083,13.756,8.68,18.727
		c0.234,0.207,0.536,0.322,0.848,0.322c0.025,0,0.05-0.002,0.076-0.003c0.338-0.021,0.654-0.173,0.879-0.427l3.95-4.447
		c0.468-0.527,0.42-1.334-0.107-1.803c-3.755-3.334-5.823-7.728-5.823-12.369c0-3.055,0.917-6.036,2.665-8.701L46.264,72.228z"/>
	<path fill="#EE9735" d="M114.443,102.969H82.75c-1.188,0-2.16,0.972-2.16,2.16v11.703c0,1.188,0.972,2.16,2.16,2.16h3.859
		c0-4.858,3.953-8.812,8.811-8.812c4.859,0,8.814,3.967,8.818,8.825l10.19,0.091c1.188,0,2.175-0.959,2.175-2.146v-11.82
		C116.604,103.94,115.631,102.969,114.443,102.969z"/>
	<path fill="#EE9735" d="M42.1,110.18c4.862,0,8.817,3.954,8.819,8.812h15.583h5.516h3.359c1.161,0,2.111-0.973,2.111-2.16v-4.5
		V95.02v-3.475c0-1.188-0.973-2.16-2.16-2.16h-1.924h-3.719H58.914c-0.515,0-1.078,0.381-1.606,1.08l-6.736,9.569
		c-0.424,0.495-1.121,0.542-1.596,0.616l-18.262,2.159c-1.082,0.194-1.194,0.907-1.337,1.474l-1.133,13.851
		c0.09,0.472,0.559,0.858,1.04,0.858h3.999C33.287,114.134,37.24,110.18,42.1,110.18z M61.047,93.605H72.35v8.101H56.06
		L61.047,93.605z"/>
	<path fill="#243D8F" d="M29.433,45.272h0.265l0.005,0l0,0h6.075c0.003-4.859,3.958-8.812,8.817-8.812
		c4.862,0,8.817,3.953,8.819,8.812h35.335c0.001-4.859,3.953-8.812,8.81-8.812c4.86,0,8.815,3.953,8.819,8.812h8.417v0
		c0,0,0.008,0,0.01,0h0.149c0.385-0.012,1.386-0.17,1.575-1.532c0.006-0.046,0.017-0.083,0.025-0.126
		c0.404-3.82-0.83-12.987-12.254-13.72c-0.589-0.07-1.567-0.215-2.413-1.279c-4.161-5.234-8.976-9.273-21.714-9.273
		c-13.297,0-19.987,2.786-27.78,8.367c-1.647,1.053-1.956,1.13-3.219,1.172c-19.532,0.501-21.722,9.747-21.659,14.125
		C27.649,44.934,28.878,45.237,29.433,45.272z M83.834,23.889c6.723,0.737,9.979,3.398,12.681,6.786H83.834V23.889z M58.771,30.656
		c5.246-4.655,9.748-6.979,18.698-6.979c0.241,0,2.467,0.011,2.701,0.016v6.981H58.747C58.755,30.668,58.762,30.663,58.771,30.656z"
		/>
	<path fill="#243D8F" d="M44.748,38.89c-3.527,0-6.387,2.861-6.387,6.387c0,3.527,2.86,6.388,6.387,6.388
		c3.522,0,6.39-2.863,6.39-6.388S48.271,38.89,44.748,38.89z M44.748,48.469c-1.766,0-3.194-1.429-3.194-3.192
		c0-1.763,1.428-3.195,3.194-3.195c1.763,0,3.191,1.433,3.191,3.195C47.939,47.041,46.511,48.469,44.748,48.469z"/>
	<path fill="#243D8F" d="M97.713,51.665c3.529,0,6.389-2.863,6.389-6.388s-2.859-6.387-6.389-6.387
		c-3.521,0-6.381,2.861-6.381,6.387C91.332,48.804,94.191,51.665,97.713,51.665z M97.713,42.082c1.765,0,3.197,1.433,3.197,3.195
		c0,1.764-1.433,3.192-3.197,3.192c-1.762,0-3.19-1.429-3.19-3.192C94.522,43.514,95.951,42.082,97.713,42.082z"/>
	<path fill="#243D8F" d="M102.887,55.887c-0.528-0.47-1.334-0.42-1.802,0.106l-3.95,4.447c-0.468,0.527-0.42,1.334,0.107,1.802
		c3.755,3.335,5.822,7.729,5.822,12.371c0,3.055-0.916,6.035-2.664,8.7l-2.575-2.575c-0.333-0.334-0.821-0.455-1.272-0.318
		s-0.79,0.51-0.882,0.972l-2.946,14.812c-0.083,0.418,0.048,0.851,0.35,1.151c0.242,0.242,0.567,0.374,0.902,0.374
		c0.082,0,0.166-0.009,0.249-0.024l14.812-2.946c0.462-0.092,0.835-0.431,0.972-0.882c0.137-0.45,0.015-0.939-0.318-1.272
		l-3.18-3.181c3.311-4.369,5.055-9.467,5.055-14.811C111.566,67.507,108.484,60.857,102.887,55.887z"/>
</g>
</svg>
