<?xml version="1.0" encoding="utf-8"?>
<!-- Generator: Adobe Illustrator 16.0.4, SVG Export Plug-In . SVG Version: 6.00 Build 0)  -->
<!DOCTYPE svg PUBLIC "-//W3C//DTD SVG 1.1//EN" "http://www.w3.org/Graphics/SVG/1.1/DTD/svg11.dtd">
<svg version="1.1" id="Layer_1" xmlns="http://www.w3.org/2000/svg" xmlns:xlink="http://www.w3.org/1999/xlink" x="0px" y="0px"
	 width="144px" height="144px" viewBox="0 0 144 144" enable-background="new 0 0 144 144" xml:space="preserve">
<g>
	<path fill="#EE9735" d="M72.027,87.856c7.562,0,13.712-6.15,13.712-13.713c0-7.561-6.15-13.712-13.712-13.712
		c-7.561,0-13.712,6.151-13.712,13.712C58.314,81.706,64.466,87.856,72.027,87.856z"/>
	<path fill="#243D8F" d="M66.023,58.631H35.765c-1.501,3.777-2.434,7.838-2.68,12.083c6.232,0.001,16.13,1.513,23.567,9.805
		c-0.818-1.964-1.275-4.116-1.275-6.376C55.376,67.081,59.803,61.046,66.023,58.631z"/>
	<path fill="#243D8F" d="M110.971,70.715c-0.246-4.245-1.179-8.307-2.681-12.083H78.031c6.219,2.415,10.646,8.45,10.646,15.512
		c0,2.26-0.457,4.412-1.273,6.376C94.84,72.228,104.738,70.716,110.971,70.715z"/>
	<path fill="#243D8F" d="M72.027,112.01c1.84,0,3.649-0.138,5.422-0.385c0.292-11.141,2.542-19.288,5.828-25.242
		c-2.967,2.729-6.911,4.411-11.25,4.411c-4.339,0-8.282-1.682-11.249-4.41c3.286,5.952,5.534,14.101,5.828,25.241
		C68.378,111.872,70.187,112.01,72.027,112.01z"/>
	<path fill="#243D8F" d="M72.027,120.662c26.283,0,47.667-21.383,47.667-47.666c0-12.797-5.079-24.425-13.314-32.996l-3.99,4.088
		l-0.114,0.117c3.911,4.108,7.007,9.001,9,14.426c1.407,3.832,2.266,7.925,2.486,12.185c0.037,0.722,0.058,1.449,0.058,2.181
		c0,23.043-18.747,41.789-41.791,41.789c-23.042,0-41.792-18.748-41.792-41.79c0-0.731,0.02-1.458,0.057-2.181
		c0.221-4.26,1.081-8.353,2.488-12.185c1.993-5.425,5.086-10.317,8.999-14.426l-0.114-0.117L37.676,40
		C29.438,48.572,24.36,60.199,24.36,72.996C24.36,99.279,45.743,120.662,72.027,120.662z"/>
	<path fill="#243D8F" d="M43.872,42.143c7.433-6.79,17.319-10.937,28.155-10.937s20.722,4.146,28.156,10.937l0.113-0.117
		l3.988-4.085c-8.495-7.823-19.826-12.61-32.257-12.61S48.265,30.118,39.77,37.94l3.988,4.086L43.872,42.143z"/>
</g>
</svg>
