<?xml version="1.0" encoding="utf-8"?>
<!-- Generator: Adobe Illustrator 16.0.4, SVG Export Plug-In . SVG Version: 6.00 Build 0)  -->
<!DOCTYPE svg PUBLIC "-//W3C//DTD SVG 1.1//EN" "http://www.w3.org/Graphics/SVG/1.1/DTD/svg11.dtd">
<svg version="1.1" id="Layer_1" xmlns="http://www.w3.org/2000/svg" xmlns:xlink="http://www.w3.org/1999/xlink" x="0px" y="0px"
	 width="144px" height="144px" viewBox="0 0 144 144" enable-background="new 0 0 144 144" xml:space="preserve">
<g>
	<path fill="#EE9735" d="M77.384,70.995l12.194-12.193l2.742-2.742l11.005-11.006l8.958-8.958c1.071-1.07,1.071-2.807,0-3.877
		c-1.07-1.071-2.807-1.071-3.877,0L95.57,45.055L84.564,56.061l-2.742,2.742l-8.315,8.316l-1.94,1.939l-1.939-1.939l-8.315-8.316
		l-2.742-2.742L47.566,45.055L34.731,32.22c-1.07-1.071-2.807-1.071-3.877,0c-1.071,1.07-1.071,2.807,0,3.877l8.958,8.958
		l11.006,11.006l2.742,2.742l12.193,12.193l0.11,0.109l1.829,1.829l-0.913,0.914l-1.026,1.026L53.558,87.066l-2.742,2.741
		l-11.006,11.005l-8.958,8.959c-1.071,1.07-1.071,2.807,0,3.876c0.535,0.536,1.237,0.804,1.938,0.804s1.404-0.268,1.939-0.804
		l12.834-12.835l11.006-11.005l2.742-2.741l8.316-8.317l1.939-1.939l1.939,1.939l8.316,8.317l2.742,2.741l11.006,11.005
		l12.835,12.835c0.535,0.536,1.238,0.804,1.938,0.804s1.402-0.268,1.938-0.804c1.071-1.069,1.071-2.806,0-3.876l-8.958-8.959
		L92.318,89.808l-2.742-2.741L77.384,74.874l-1.026-1.026l-0.912-0.914l1.83-1.829L77.384,70.995z"/>
	<polygon fill="#243D8F" points="51.443,100.812 91.692,100.812 80.687,89.808 62.449,89.808 	"/>
	<path fill="#243D8F" d="M46.939,89.808H36.867c-0.758,0-1.371-0.614-1.371-1.371s0.613-1.37,1.371-1.37h12.813L62.9,73.846H36.867
		c-0.758,0-1.371-0.613-1.371-1.371c0-0.758,0.613-1.371,1.371-1.371h25.116L49.681,58.802H36.867c-0.758,0-1.371-0.613-1.371-1.371
		c0-0.758,0.613-1.371,1.371-1.371h10.072L35.933,45.055h-1.628c-4.307,0-7.798,3.491-7.798,7.798v40.162
		c0,4.308,3.491,7.798,7.798,7.798h1.628L46.939,89.808z"/>
	<path fill="#243D8F" d="M116.631,52.853c0-4.307-3.491-7.798-7.799-7.798h-1.628L96.197,56.061h10.072
		c0.758,0,1.371,0.613,1.371,1.371c0,0.757-0.613,1.371-1.371,1.371H93.455L81.152,71.105h25.116c0.757,0,1.371,0.613,1.371,1.371
		c0,0.757-0.614,1.372-1.371,1.372H80.236l13.219,13.219h12.814c0.758,0,1.371,0.613,1.371,1.37s-0.613,1.371-1.371,1.371H96.197
		l11.007,11.007h1.628c4.308,0,7.799-3.491,7.799-7.799V52.853L116.631,52.853z"/>
	<polygon fill="#243D8F" points="62.449,56.061 80.687,56.061 91.692,45.055 51.443,45.055 	"/>
	<polygon fill="#243D8F" points="71.568,80.689 65.191,87.066 77.944,87.066 	"/>
	<polygon fill="#243D8F" points="77.944,58.802 65.191,58.802 71.568,65.179 	"/>
</g>
</svg>
