<?xml version="1.0" encoding="utf-8"?>
<!-- Generator: Adobe Illustrator 16.0.4, SVG Export Plug-In . SVG Version: 6.00 Build 0)  -->
<!DOCTYPE svg PUBLIC "-//W3C//DTD SVG 1.1//EN" "http://www.w3.org/Graphics/SVG/1.1/DTD/svg11.dtd">
<svg version="1.1" id="Layer_1" xmlns="http://www.w3.org/2000/svg" xmlns:xlink="http://www.w3.org/1999/xlink" x="0px" y="0px"
	 width="144px" height="144px" viewBox="0 0 144 144" enable-background="new 0 0 144 144" xml:space="preserve">
<g>
	<path fill="#EE9735" d="M45.229,46.247c0.251-0.259,0.492-0.523,0.748-0.778c1.069-1.069,2.184-2.08,3.319-3.061l-3.166-3.371
		c-1.058-1.125-2.827-1.182-3.953-0.123c-1.125,1.058-1.181,2.827-0.123,3.953L45.229,46.247z"/>
	<path fill="#EE9735" d="M102.418,102.253c2.825,0,5.48-1.101,7.477-3.098c4.123-4.122,4.125-10.831,0.002-14.954
		c-1.093-1.092-2.862-1.092-3.954,0c-1.093,1.093-1.093,2.862,0,3.954c1.942,1.942,1.94,5.104-0.002,7.047
		c-0.941,0.94-2.192,1.459-3.522,1.459c-1.331,0-2.582-0.52-3.461-1.396L83.59,78.908c-0.545,1.903-1.994,3.422-3.858,4.061
		l15.21,16.187C96.938,101.152,99.593,102.253,102.418,102.253z"/>
	<path fill="#243D8F" d="M41.885,113.431c0.193,0,0.389-0.019,0.583-0.062c1.097-0.235,1.948-1.102,2.162-2.202
		c0.502-2.588,2.314-5.646,4.851-8.18c3.21-3.212,7.218-5.238,9.983-4.957c0.831,0.084,1.666-0.21,2.261-0.804
		c0.595-0.595,0.89-1.425,0.805-2.262c-0.232-2.271,1.21-6.237,4.955-9.982c3.013-3.013,6.713-4.984,9.457-4.982
		c0.179,0,0.355,0.008,0.526,0.024c0.832,0.085,1.665-0.212,2.261-0.804c0.594-0.596,0.889-1.425,0.803-2.262
		c-0.038-0.378-0.025-0.808,0.031-1.27c0.287-2.319,1.806-5.591,4.925-8.712c3.211-3.21,7.218-5.246,9.984-4.956
		c0.832,0.088,1.667-0.21,2.261-0.804c0.596-0.595,0.891-1.426,0.805-2.263c-0.231-2.271,1.21-6.236,4.954-9.98
		c2.537-2.537,5.596-4.35,8.184-4.853c1.103-0.213,1.968-1.064,2.202-2.161c0.233-1.097-0.212-2.228-1.129-2.872
		c-7.366-5.169-16.284-7.901-25.785-7.901c-12.647,0-25.334,4.919-35.435,13.6c-1.112,0.955-2.201,1.943-3.246,2.989
		c-0.28,0.279-0.545,0.567-0.818,0.852c-17.641,18.34-20.995,44.911-7.87,63.613C40.126,112.996,40.985,113.431,41.885,113.431z"/>
</g>
</svg>
