<?xml version="1.0" encoding="utf-8"?>
<!-- Generator: Adobe Illustrator 16.0.4, SVG Export Plug-In . SVG Version: 6.00 Build 0)  -->
<!DOCTYPE svg PUBLIC "-//W3C//DTD SVG 1.1//EN" "http://www.w3.org/Graphics/SVG/1.1/DTD/svg11.dtd">
<svg version="1.1" id="Layer_1" xmlns="http://www.w3.org/2000/svg" xmlns:xlink="http://www.w3.org/1999/xlink" x="0px" y="0px"
	 width="144px" height="144px" viewBox="0 0 144 144" enable-background="new 0 0 144 144" xml:space="preserve">
<g>
	<path fill="#EE9735" d="M44.291,121.99c0.284,0,0.573-0.037,0.861-0.117l55.731-15.264c0.832-0.228,1.538-0.777,1.965-1.524
		c0.427-0.751,0.539-1.64,0.312-2.47l-1.238-4.522l-9.483-6.637c-1.061-0.742-1.738-1.885-1.859-3.139
		c-0.023-0.24-0.02-0.479-0.002-0.718c-4.392,3.748-10.024,5.883-15.928,5.883c-1.303,0-2.593-0.106-3.861-0.31L46.476,99.88
		c-0.123,0.034-0.249,0.051-0.37,0.051c-0.612,0-1.173-0.406-1.343-1.023c-0.204-0.742,0.231-1.51,0.974-1.715l19.813-5.465
		c-1.726-0.692-3.379-1.588-4.933-2.675c-0.62-0.434-1.213-0.896-1.784-1.377l-14.605,4.001c-0.124,0.033-0.248,0.05-0.369,0.05
		c-0.612,0-1.174-0.406-1.343-1.025c-0.204-0.743,0.233-1.509,0.976-1.712L56.5,85.426c-1.372-1.51-2.543-3.179-3.492-4.974
		l-11.027,3.021c-0.124,0.033-0.248,0.049-0.369,0.049c-0.612,0-1.174-0.407-1.342-1.024c-0.204-0.743,0.233-1.51,0.976-1.714
		l10.585-2.899c-0.577-1.487-1.013-3.041-1.297-4.647c-1.139-6.447,0.302-12.951,4.054-18.312
		c4.582-6.549,12.093-10.458,20.093-10.458c4.912,0,9.641,1.465,13.71,4.22l-6.506-23.752c-0.475-1.731-2.261-2.752-3.995-2.277
		L22.159,37.924c-0.833,0.228-1.538,0.776-1.965,1.525c-0.426,0.75-0.539,1.638-0.311,2.469l21.276,77.679
		C41.553,121.041,42.862,121.99,44.291,121.99z M80.367,96.36l9.707-2.493c0.747-0.194,1.505,0.257,1.696,1.004
		c0.191,0.745-0.258,1.504-1.003,1.695l-9.707,2.493c-0.116,0.029-0.233,0.044-0.348,0.044c-0.621,0-1.188-0.418-1.349-1.047
		C79.174,97.311,79.622,96.553,80.367,96.36z M47.985,105.396l24.653-6.753c0.746-0.201,1.508,0.233,1.711,0.976
		c0.205,0.743-0.232,1.51-0.975,1.714l-24.653,6.752c-0.123,0.035-0.248,0.051-0.369,0.051c-0.612,0-1.173-0.406-1.342-1.024
		C46.806,106.365,47.243,105.6,47.985,105.396z M32.623,50.709c-0.61,0-1.17-0.404-1.341-1.022c-0.206-0.741,0.229-1.509,0.97-1.715
		l24.487-6.795c0.744-0.205,1.509,0.228,1.716,0.97c0.207,0.741-0.229,1.509-0.97,1.715l-24.487,6.796
		C32.872,50.692,32.746,50.709,32.623,50.709z M34.87,58.913c-0.625,0-1.191-0.422-1.351-1.054c-0.187-0.746,0.266-1.503,1.012-1.69
		l11.377-2.861c0.75-0.186,1.503,0.266,1.691,1.012c0.188,0.746-0.266,1.503-1.011,1.69L35.21,58.87
		C35.097,58.898,34.982,58.913,34.87,58.913z M37.116,67.117c-0.612,0-1.174-0.407-1.342-1.026
		c-0.205-0.742,0.233-1.508,0.975-1.712l9.24-2.53c0.747-0.2,1.508,0.235,1.711,0.977c0.203,0.742-0.235,1.509-0.977,1.711
		l-9.238,2.529C37.363,67.1,37.238,67.117,37.116,67.117z M39.363,75.319c-0.608,0-1.167-0.401-1.34-1.017
		c-0.208-0.741,0.224-1.51,0.964-1.718l6.784-1.907c0.74-0.209,1.51,0.223,1.719,0.964c0.208,0.741-0.224,1.51-0.963,1.718
		l-6.784,1.907C39.616,75.303,39.489,75.319,39.363,75.319z"/>
	<path fill="#243D8F" d="M54.544,77.143c0.051,0.127,0.113,0.247,0.167,0.372c0.3,0.706,0.639,1.391,1.01,2.057
		c0.021,0.04,0.045,0.08,0.067,0.119c1.02,1.799,2.293,3.441,3.799,4.89c0.81,0.78,1.668,1.518,2.606,2.177
		c0.007,0.004,0.013,0.01,0.02,0.015c2.565,1.795,5.439,2.982,8.46,3.545c1.302,0.242,2.629,0.38,3.976,0.38
		c4.18,0,8.205-1.213,11.642-3.39c2.392-1.516,4.501-3.497,6.168-5.878c1.414-2.021,2.455-4.228,3.109-6.532
		c0.886-3.115,1.065-6.414,0.484-9.697c-0.816-4.62-3.067-8.742-6.404-11.915c-0.791-0.751-1.622-1.466-2.532-2.103
		c-3.67-2.569-7.972-3.926-12.438-3.926c-7.09,0-13.75,3.465-17.81,9.269c-3.328,4.753-4.603,10.517-3.594,16.23
		C53.545,74.275,53.979,75.741,54.544,77.143z M61.021,59.428c3.114-4.45,8.22-7.106,13.659-7.106c3.422,0,6.717,1.041,9.532,3.011
		c3.645,2.551,6.077,6.367,6.853,10.747c0.772,4.38-0.206,8.8-2.756,12.444c-3.114,4.45-8.221,7.106-13.659,7.106
		c-1.797,0-3.557-0.294-5.233-0.853c-1.336-0.444-2.613-1.064-3.813-1.844c-0.162-0.105-0.327-0.202-0.485-0.313
		c-1.696-1.187-3.116-2.657-4.243-4.321c-0.536-0.793-0.997-1.632-1.39-2.509c-0.554-1.239-0.977-2.546-1.219-3.917
		c-0.106-0.605-0.173-1.212-0.212-1.817c-0.065-0.973-0.044-1.941,0.059-2.899C58.41,64.406,59.39,61.759,61.021,59.428z"/>
	<path fill="#243D8F" d="M123.466,96.543l-23.219-16.246c-0.13-0.092-0.269-0.154-0.406-0.205c-0.038-0.014-0.076-0.023-0.114-0.034
		c-0.116-0.031-0.232-0.051-0.347-0.056c-0.025-0.001-0.052-0.007-0.076-0.007c-0.127,0.002-0.251,0.019-0.371,0.054
		c-0.027,0.009-0.055,0.022-0.082,0.032c-0.093,0.03-0.18,0.07-0.263,0.12c-0.037,0.021-0.072,0.045-0.107,0.069
		c-0.074,0.054-0.144,0.113-0.209,0.18c-0.028,0.03-0.06,0.058-0.087,0.091c-0.087,0.104-0.168,0.218-0.232,0.349
		c0,0-0.183,0.376-0.487,0.929c-0.33,0.6-0.805,1.409-1.355,2.195c-1.058,1.51-2.303,2.801-2.303,2.801
		c-0.696,0.723-0.594,1.784,0.229,2.358l6.733,4.712l16.484,11.534c0.142,0.1,0.295,0.168,0.451,0.221
		c0.035,0.014,0.07,0.023,0.106,0.034c0.156,0.042,0.315,0.071,0.474,0.071c0.023,0,0.049-0.006,0.073-0.007
		c0.106-0.003,0.214-0.015,0.318-0.037c0.043-0.009,0.086-0.023,0.127-0.034c0.088-0.024,0.171-0.057,0.253-0.093
		c0.043-0.02,0.086-0.041,0.128-0.063c0.08-0.045,0.156-0.097,0.23-0.154c0.033-0.025,0.069-0.05,0.101-0.078
		c0.102-0.092,0.197-0.192,0.279-0.308l4.12-5.89C124.489,98.262,124.287,97.118,123.466,96.543z"/>
</g>
</svg>
