<?xml version="1.0" encoding="utf-8"?>
<!-- Generator: Adobe Illustrator 16.0.4, SVG Export Plug-In . SVG Version: 6.00 Build 0)  -->
<!DOCTYPE svg PUBLIC "-//W3C//DTD SVG 1.1//EN" "http://www.w3.org/Graphics/SVG/1.1/DTD/svg11.dtd">
<svg version="1.1" id="Layer_1" xmlns="http://www.w3.org/2000/svg" xmlns:xlink="http://www.w3.org/1999/xlink" x="0px" y="0px"
	 width="144px" height="144px" viewBox="0 0 144 144" enable-background="new 0 0 144 144" xml:space="preserve">
<g>
	<path fill="#EE9735" d="M30.046,97.499c8.44,14.151,23.896,23.655,41.537,23.655c26.651,0,48.333-21.682,48.333-48.333
		S98.234,24.488,71.583,24.488S23.25,46.17,23.25,72.821c0,8.942,2.451,17.321,6.702,24.513
		C29.983,97.389,30.014,97.445,30.046,97.499z M71.583,115.154c-11.679,0-22.268-4.754-29.935-12.428
		c-0.65-0.65-1.271-1.329-1.877-2.021l13.827-10.993l30.929-24.59l6.066-4.823l4.039-3.211l11.292-8.978
		c0.537,0.745,1.052,1.507,1.541,2.287c4.081,6.507,6.451,14.192,6.451,22.423C113.916,96.164,94.926,115.154,71.583,115.154z
		 M29.25,72.821c0-23.343,18.991-42.333,42.333-42.333c10.976,0,20.987,4.2,28.517,11.075c0.683,0.623,1.337,1.275,1.978,1.941
		l-9.72,7.728l-3.94,3.133L74.886,65.123l-30.929,24.59l-7.817,6.215c-0.505-0.771-0.986-1.562-1.441-2.367
		C31.236,87.426,29.25,80.354,29.25,72.821z"/>
	<path fill="#243D8F" d="M88.945,65.123l-30.929,24.59h45.451l0.063-17.086c0.001-4.626-3.67-7.081-5.766-7.357l-2.103-5.488
		L91.59,63.02l0.771,2.103H88.945z M98.162,74.732c0,2.59-2.098,4.689-4.688,4.689c-2.589,0-4.688-2.1-4.688-4.689
		s2.099-4.688,4.688-4.688C96.064,70.045,98.162,72.143,98.162,74.732z"/>
	<path fill="#243D8F" d="M50.921,65.123l3.985-10.777c0.483-1.509,1.227-2.586,2.971-2.606h27.626
		c0.541,0.01,0.977,0.145,1.346,0.358l3.963-3.151c-1.212-1.204-2.941-2.02-5.375-2.04l-7.38-0.027l-12.611-0.046l-7.508-0.027
		c-4.029,0.004-6.175,2.197-7.181,4.78l-5.283,13.493c-2.079,0.26-5.765,2.688-5.776,7.314l-0.062,17.242l30.831-24.512H50.921z
		 M49.692,79.422c-2.59,0-4.688-2.1-4.688-4.689s2.098-4.688,4.688-4.688s4.688,2.098,4.688,4.688S52.282,79.422,49.692,79.422z"/>
	<path fill="#243D8F" d="M93.83,99.321l4.289,0.017c1.387,0.005,2.524-1.125,2.529-2.51l0.014-4h-9.327l-0.014,3.965
		C91.314,98.179,92.444,99.316,93.83,99.321z"/>
</g>
</svg>
