<?xml version="1.0" encoding="utf-8"?>
<!-- Generator: Adobe Illustrator 16.0.4, SVG Export Plug-In . SVG Version: 6.00 Build 0)  -->
<!DOCTYPE svg PUBLIC "-//W3C//DTD SVG 1.1//EN" "http://www.w3.org/Graphics/SVG/1.1/DTD/svg11.dtd">
<svg version="1.1" id="Layer_1" xmlns="http://www.w3.org/2000/svg" xmlns:xlink="http://www.w3.org/1999/xlink" x="0px" y="0px"
	 width="144px" height="144px" viewBox="0 0 144 144" enable-background="new 0 0 144 144" xml:space="preserve">
<g>
	<path fill="#EE9735" d="M125.35,74.489l-4.736-12.367c-0.886-2.366-2.834-4.385-6.53-4.416H88.952
		c-3.682,0.003-5.643,1.917-6.563,4.276l-1.708,4.361l4.179,0.016c0.209,0.002,0.412,0.013,0.617,0.025l0.706-1.879
		c0.44-1.379,1.118-2.364,2.716-2.381h25.246c1.57,0.03,2.243,1.111,2.693,2.494l3.574,9.736H94.721l3.607,9.328
		c2.857,1.199,5.976,4.309,5.975,9.1l-0.016,4.105h26.275l0.057-15.675C130.619,76.984,127.265,74.741,125.35,74.489z
		 M121.433,87.664c-2.366,0-4.284-1.918-4.284-4.283c0-1.44,0.715-2.707,1.804-3.484c0.701-0.5,1.554-0.802,2.48-0.802
		c2.368,0,4.285,1.918,4.285,4.286c0,0.927-0.302,1.779-0.802,2.48C124.139,86.949,122.873,87.664,121.433,87.664z"/>
	<path fill="#EE9735" d="M119.503,103.717c-0.003,1.266,1.028,2.307,2.292,2.312l3.921,0.014c1.269,0.004,2.308-1.028,2.312-2.294
		l0.014-3.867h-8.525L119.503,103.717z"/>
	<path fill="#EE9735" d="M40.034,92.781c-0.001-4.791,3.116-7.9,5.974-9.1l3.607-9.328h-25.69l3.572-9.736
		c0.451-1.382,1.125-2.464,2.696-2.494h25.245c1.598,0.018,2.275,1.002,2.716,2.381l0.706,1.879
		c0.204-0.012,0.411-0.023,0.617-0.025l4.179-0.016l-1.708-4.361c-0.921-2.36-2.881-4.273-6.564-4.276h-25.13
		c-3.698,0.031-5.645,2.05-6.531,4.416l-4.736,12.367c-1.916,0.252-5.27,2.495-5.27,6.723l0.058,15.675h26.274L40.034,92.781z
		 M22.903,87.664c-2.367,0-4.284-1.918-4.284-4.283c0-2.368,1.917-4.286,4.284-4.286s4.284,1.918,4.284,4.286
		C27.187,85.746,25.27,87.664,22.903,87.664z"/>
	<path fill="#EE9735" d="M16.171,99.881l0.012,3.867c0.004,1.266,1.043,2.298,2.312,2.294l3.92-0.014
		c1.266-0.005,2.297-1.046,2.293-2.312l-0.013-3.836H16.171z"/>
	<path fill="#243D8F" d="M101.365,92.781c0.001-4.227-3.354-6.471-5.27-6.723l-4.737-12.366c-0.885-2.367-2.832-4.386-6.529-4.417
		l-6.744-0.024L66.56,69.209l-6.862-0.025c-3.682,0.004-5.644,2.008-6.562,4.369l-4.828,12.331
		c-1.899,0.237-5.268,2.456-5.279,6.685l-0.058,15.828h58.336L101.365,92.781z M56.928,76.075c0.441-1.379,1.121-2.363,2.715-2.382
		h25.248c1.57,0.029,2.245,1.111,2.696,2.494l3.57,9.736H53.286L56.928,76.075z M52.162,98.991c-2.367,0-4.285-1.917-4.285-4.284
		s1.917-4.285,4.285-4.285c2.367,0,4.284,1.918,4.284,4.285S54.529,98.991,52.162,98.991z M92.174,98.991
		c-2.366,0-4.283-1.917-4.283-4.284s1.917-4.285,4.283-4.285c2.367,0,4.284,1.918,4.284,4.285S94.541,98.991,92.174,98.991z"/>
	<path fill="#243D8F" d="M47.711,117.059l3.921,0.014c1.267,0.004,2.307-1.027,2.31-2.293l0.014-3.49H45.43l-0.013,3.459
		C45.413,116.014,46.445,117.053,47.711,117.059z"/>
	<path fill="#243D8F" d="M92.5,117.223l3.92,0.014c1.267,0.005,2.307-1.027,2.311-2.293l0.013-3.654h-8.524l-0.013,3.623
		C90.201,116.178,91.232,117.218,92.5,117.223z"/>
	<path fill="#243D8F" d="M58.907,48.23H66.9v7.994c0,0.829,0.671,1.5,1.5,1.5h8.476c0.829,0,1.5-0.671,1.5-1.5V48.23h7.993
		c0.828,0,1.5-0.671,1.5-1.5v-8.475c0-0.829-0.672-1.5-1.5-1.5h-7.993v-7.993c0-0.829-0.671-1.5-1.5-1.5H68.4
		c-0.829,0-1.5,0.671-1.5,1.5v7.993h-7.993c-0.829,0-1.5,0.671-1.5,1.5v8.475C57.407,47.559,58.079,48.23,58.907,48.23z"/>
</g>
</svg>
