<?xml version="1.0" encoding="utf-8"?>
<!-- Generator: Adobe Illustrator 16.0.4, SVG Export Plug-In . SVG Version: 6.00 Build 0)  -->
<!DOCTYPE svg PUBLIC "-//W3C//DTD SVG 1.1//EN" "http://www.w3.org/Graphics/SVG/1.1/DTD/svg11.dtd">
<svg version="1.1" id="Layer_1" xmlns="http://www.w3.org/2000/svg" xmlns:xlink="http://www.w3.org/1999/xlink" x="0px" y="0px"
	 width="144px" height="144px" viewBox="0 0 144 144" enable-background="new 0 0 144 144" xml:space="preserve">
<g>
	<path fill="#EE9735" d="M86.331,94.865c0.067-2.292,0.882-4.396,2.212-6.08H48.697c1.332,1.684,2.147,3.788,2.214,6.08H86.331z"/>
	<path fill="#EE9735" d="M21.838,94.865h8.47c0.067-2.292,0.882-4.396,2.213-6.08H21.838c-0.482,0-0.875,0.395-0.875,0.876v4.329
		C20.962,94.471,21.356,94.865,21.838,94.865z"/>
	<path fill="#EE9735" d="M121.685,88.785h-16.974c1.332,1.684,2.146,3.788,2.214,6.08h14.76c0.481,0,0.876-0.395,0.876-0.875v-4.329
		C122.561,89.18,122.166,88.785,121.685,88.785z"/>
	<path fill="#243D8F" d="M65.739,85.813h53.203c1.188,0,2.16-0.972,2.16-2.16V43.232c0-1.188-0.973-2.16-2.16-2.16H65.739
		c-1.188,0-2.16,0.972-2.16,2.16v40.421C63.579,84.842,64.551,85.813,65.739,85.813z M76.462,53.067c0-1.34,0.889-2.518,2.178-2.885
		c1.288-0.366,2.665,0.166,3.371,1.303L92.34,68.128l10.329-16.643c0.706-1.138,2.083-1.672,3.371-1.303
		c1.289,0.368,2.178,1.545,2.178,2.885v20.75c0,1.657-1.343,3-3,3s-3-1.343-3-3V63.59l-7.329,11.809
		c-0.547,0.882-1.512,1.418-2.549,1.418s-2.002-0.536-2.549-1.418L82.462,63.59v10.227c0,1.657-1.343,3-3,3s-3-1.343-3-3V53.067z"/>
	<path fill="#243D8F" d="M26.028,85.881h32.431c1.188,0,2.16-0.973,2.16-2.16V51.564c0-1.188-0.972-2.16-2.16-2.16H40.629
		c-1.188,0-2.506,0.908-2.929,2.019l-5.208,13.666c-0.423,1.11-1.667,2.39-2.766,2.843l-3.862,1.595
		c-1.098,0.454-1.997,1.797-1.997,2.985v11.209C23.868,84.908,24.84,85.881,26.028,85.881z M38.127,64.383l2.455-7.174
		c0.385-1.124,1.671-2.043,2.859-2.043h8.331c1.188,0,2.16,0.972,2.16,2.16v6.941c0,1.188-0.972,2.16-2.16,2.16H39.588
		C38.4,66.426,37.742,65.507,38.127,64.383z"/>
	<path fill="#243D8F" d="M32.792,95.172c0,4.314,3.5,7.816,7.815,7.816c4.31,0,7.819-3.503,7.819-7.816
		c0-4.314-3.507-7.816-7.819-7.816C36.292,87.355,32.792,90.856,32.792,95.172z M44.513,95.172c0,2.158-1.748,3.906-3.905,3.906
		c-2.161,0-3.909-1.748-3.909-3.906s1.748-3.91,3.909-3.91C42.765,91.262,44.513,93.014,44.513,95.172z"/>
	<path fill="#243D8F" d="M104.44,95.172c0-4.314-3.498-7.816-7.816-7.816c-4.308,0-7.809,3.501-7.809,7.816
		c0,4.314,3.5,7.816,7.809,7.816C100.942,102.988,104.44,99.485,104.44,95.172z M92.72,95.172c0-2.158,1.749-3.91,3.904-3.91
		c2.16,0,3.912,1.752,3.912,3.91s-1.752,3.906-3.912,3.906C94.469,99.078,92.72,97.33,92.72,95.172z"/>
</g>
</svg>
