<?xml version="1.0" encoding="utf-8"?>
<!-- Generator: Adobe Illustrator 19.2.1, SVG Export Plug-In . SVG Version: 6.00 Build 0)  -->
<svg version="1.1" id="Layer_1" xmlns="http://www.w3.org/2000/svg" xmlns:xlink="http://www.w3.org/1999/xlink" x="0px" y="0px"
	 viewBox="0 0 104.4 60.5" style="enable-background:new 0 0 104.4 60.5;" xml:space="preserve">
<style type="text/css">
	.st0{fill:#EE9836;}
	.st1{fill:#1C5B9F;}
</style>
<path class="st0" d="M90.1,43.8l-1.3,0.1c0,0-9.5-1.6-10.3-1.7s-9.7-6.1-9.7-6.1s-2.3-1.6-3.5-1.6l-20.1,0.7c-0.7,0-1.3,0.2-1.8,0.6
	L34.1,42c0,0-13.8,2.8-18.8,4.3s-5,2.6-5,2.6l0.6,4.3c0.6,1.1,1.8,1.8,3,1.9c0.3,0.9,1,1.5,1.9,1.8l6.2,0.3c1.3,2.9,4.7,4.1,7.6,2.8
	c1.5-0.7,2.7-2,3.1-3.7h36c0.9,3,4.1,4.7,7.1,3.9c1.7-0.5,3-1.7,3.7-3.3l6.1-0.8c1.6-0.4,1.7-1.8,2.2-2c0.8,0,3.8-0.4,4.3-1
	s0.8-3,1-3.8S90.1,43.8,90.1,43.8L90.1,43.8z"/>
<path class="st1" d="M92,19.3L82,6.2H49.7V2.5h-2.2V0h-5v2.5h-2.2V7L22,17.1l-4.2-2L0,26.7L1,28h2.8v22.1h4l-0.1-0.9v-0.1
	c0-0.1,0-0.2,0-0.2c0-2.8,3.7-4.2,6.9-5.2c4.6-1.4,16-3.8,18.5-4.3l8.8-5.8c1-0.7,2.1-1.1,3.4-1.1h-0.1l20.2-0.7c1.8,0,3.9,1.3,5,2
	c3.5,2.4,7.8,5.2,8.9,5.7c1.7,0.2,7.8,1.3,9.7,1.6l2.7-0.2l0.9,1.4c2.6,4.4,3.1,6,3.1,6.9c0,0.3,0,0.5-0.1,0.8h4.7V28h3.1l1.1-1.3
	L92,19.3z"/>
</svg>
