<svg data-name="Layer 1" xmlns="http://www.w3.org/2000/svg" viewBox="0 0 324.28 123.02"><path d="M192.4 45.45l-1.31.09s-9.5-1.57-10.29-1.66-9.68-6.1-9.68-6.1-2.3-1.57-3.49-1.57l-20.1.65a2.91 2.91 0 0 0-1.83.62l-9.28 6.1s-13.78 2.84-18.83 4.32-5 2.62-5 2.62l.61 4.28a3.94 3.94 0 0 0 3 1.92 2.77 2.77 0 0 0 1.92 1.75l6.2.32a5.7 5.7 0 0 0 10.68-.84h36a5.71 5.71 0 0 0 10.75.56l6.05-.77c1.6-.4 1.66-1.75 2.18-2 .78 0 3.84-.43 4.27-1s.78-3 1-3.75-2.85-5.54-2.85-5.54z" fill="#ee9836" /><path d="M194.33 20.88l-10.07-13.1H152V4.14h-2.16V1.62h-5v2.52h-2.19v4.52l-18.39 10.07-4.15-2L102.3 28.3l1 1.32h2.77v22.1h4l-.14-.92v-.1a2.08 2.08 0 0 1 0-.25c0-2.78 3.68-4.22 6.91-5.17 4.63-1.36 16-3.75 18.54-4.27l8.82-5.79a5.6 5.6 0 0 1 3.35-1.08h-.08l20.18-.65c1.76 0 3.9 1.28 5 2 3.54 2.4 7.8 5.17 8.88 5.71 1.7.25 7.83 1.26 9.69 1.57l2.66-.18.85 1.41c2.59 4.4 3.11 6 3.11 6.86a2.74 2.74 0 0 1-.11.75h4.68v-22h3.15l1.13-1.32z" fill="#1c5b9f" /><path d="M14.5 90.85a9.13 9.13 0 0 1-2.18 6.4 7.75 7.75 0 0 1-6 2.39 10 10 0 0 1-6-1.8q0-1.22-.14-3.37C.1 93 .05 92.14.05 91.77l.28-.16q1.1 7.15 6.09 7.15a4.88 4.88 0 0 0 3.7-1.44 5.42 5.42 0 0 0 1.36-3.89 6 6 0 0 0-1.36-3.9 7.33 7.33 0 0 0-2-1.63q-1.5-.66-2.17-1a13 13 0 0 1-4.45-3.19A8.56 8.56 0 0 1 0 78.37a8.36 8.36 0 0 1 1.93-5.71 6.46 6.46 0 0 1 5.12-2.22 13.21 13.21 0 0 1 2.78.3 20.63 20.63 0 0 1 3 .93L13 77.8h-.29q-.59-6.48-5.58-6.48a4.25 4.25 0 0 0-3.3 1.34 5.13 5.13 0 0 0-1.22 3.59 4.56 4.56 0 0 0 1.1 3 8.67 8.67 0 0 0 2.36 1.89c.29.16 1.23.62 2.83 1.38a12.31 12.31 0 0 1 4.23 3.35 8.39 8.39 0 0 1 1.37 4.98zM48.08 99.14h-8.92v-.64l2.93-.7-2.54-20.6-.55.21-6.19 21.73H32l-6-21.73-.61-.22-2.46 20.61 2.92.71v.64h-6.46v-.65l2.7-.67 2.77-21.49-3.28-.7v-.55h7l5.09 18.13 5.08-18.13h7.05v.57l-2.94.68 2.74 21.45 2.5.71v.64zM72.71 99.14h-9.19v-.63l3.09-.74-2.29-7.25h-7.05l-2.14 7.23 2.82.75v.64h-6.28v-.64l2.4-.67 7.16-23h1.66l7.43 23 2.4.67v.64zM64 89.52L60.78 79l-3.2 10.53H64zM118.82 81.92h-.27q-.3-1.68-.54-2.63c-.16-.63-.32-1.21-.49-1.74a2.09 2.09 0 0 0-.52-1 1.65 1.65 0 0 0-.95-.2h-4.91v21.49l3.64.67v.61H104v-.59l3.58-.67V76.38h-4.88a1.68 1.68 0 0 0-.93.18 2.16 2.16 0 0 0-.52 1q-.27.79-.51 1.77t-.48 2.6H100c.11-1.15.22-2.31.31-3.48s.14-2.3.14-3.38h17.88q0 1.72.1 3t.39 3.85zM146.78 93.15q-.44.94-.91 2.2t-1 2.75a16.6 16.6 0 0 1-7.29 1.54q-6.5 0-10.15-4t-3.62-10.84q0-6.82 3.49-10.6t9.87-3.77a21.12 21.12 0 0 1 4.22.43 38.82 38.82 0 0 1 4.77 1.35c0 .76 0 1.93.16 3.48s.16 2.72.16 3.48h-.36Q145 71.3 137.2 71.3a8.26 8.26 0 0 0-6.84 3q-2.35 3-2.35 8.62a24.55 24.55 0 0 0 .43 4.64 24.08 24.08 0 0 0 1.22 4.28q2.92 6.82 9.11 6.82 5.48 0 7.77-5.68zM172.64 87.15q0 5.86-2.89 9.18a10.05 10.05 0 0 1-8 3.32 9.42 9.42 0 0 1-7.64-3.29q-2.75-3.29-2.75-9.21t2.85-9.22q2.87-3.27 8.13-3.27a9.33 9.33 0 0 1 7.66 3.27q2.65 3.19 2.64 9.22zm-3.93 1q0-6.39-1.72-9.54a5.5 5.5 0 0 0-5.12-3.16q-6.66 0-6.65 10.74 0 6.33 1.75 9.49a5.54 5.54 0 0 0 5.12 3.17q6.62 0 6.62-10.74zM196.2 75.66l-2.53.68-7.07 22.81h-2.3l-7-22.84-3-.64v-.58h10v.54l-3.4.7 5.87 19.48 5.86-19.44-2.89-.71v-.57h6.45v.57zM215.93 92.86l-.71 6.27h-15v-.63l2.78-.71V76.37l-2.78-.71v-.57H214v.34l.1 4.77h-.2a19.45 19.45 0 0 0-.46-2c-.15-.48-.34-1.2-.59-2h-6.36v9.72h4.88l.82-3h.24l-.07 3.58q0 .64.07 2.12t.07 1.58h-.2l-.89-3.28h-4.92v11h7.54q.37-.94.78-2.07c.27-.75.58-1.73.91-3zM242.71 100.58l-.1.17-2.53-.37a4.32 4.32 0 0 1-2.53-1.28 27.46 27.46 0 0 1-2.55-3.94q-1.18-2.13-3.61-6.78h-2.94v9.48l2.88.64v.64h-9.21v-.64l2.82-.72V76.27l-2.82-.68v-.53h9.06q3.69 0 5.4 1.39T238.3 81a7.24 7.24 0 0 1-.9 3.69 6.34 6.34 0 0 1-2.83 2.5q1.72 3.28 3.42 6.44t2.64 4.55a9.43 9.43 0 0 0 2.08 2.4zm-8.17-18.52q0-6.47-4.76-6.47l-1.35.13v11.94l1.72.14a3.94 3.94 0 0 0 3.34-1.37 7.25 7.25 0 0 0 1.05-4.37zM97.88 100.58l-.1.17-2.54-.37a4.32 4.32 0 0 1-2.53-1.28 27.63 27.63 0 0 1-2.57-3.95Q89 93 86.54 88.38h-2.93v9.48l2.88.64v.64h-9.22v-.64l2.79-.72V76.27l-2.82-.68v-.53h9.06q3.69 0 5.4 1.39T93.43 81a7.24 7.24 0 0 1-.9 3.69 6.35 6.35 0 0 1-2.83 2.5q1.72 3.28 3.42 6.44t2.64 4.55a9.39 9.39 0 0 0 2.12 2.4zm-8.17-18.52q0-6.47-4.76-6.47l-1.35.13v11.94l1.72.14a3.94 3.94 0 0 0 3.34-1.37 7.24 7.24 0 0 0 1.05-4.37zM266.08 99.14h-9.19v-.63l3.09-.74-2.29-7.25h-7.05l-2.13 7.23 2.81.75v.64H245v-.64l2.4-.67 7.16-23h1.66l7.43 23 2.4.67v.64zm-8.72-9.62L254.15 79l-3.26 10.49h6.46zM289.47 90.81l-2.88.64v6h1.75v.46a35.91 35.91 0 0 1-4.68 1.3 19.85 19.85 0 0 1-3.9.46q-5.57 0-8.7-3.4t-3.13-9.35q0-5.84 3-9.07t8.46-3.23A18 18 0 0 1 283 75a32.75 32.75 0 0 1 4.09 1.15q0 1 .14 3c.09 1.32.13 2.32.13 3h-.3a7.75 7.75 0 0 0-2.38-5 7.6 7.6 0 0 0-5.26-1.73 7.06 7.06 0 0 0-5.83 2.58q-2.06 2.57-2.06 7.33a17.19 17.19 0 0 0 2.55 9.78 7.63 7.63 0 0 0 6.52 3.73 11.65 11.65 0 0 0 2.6-.37v-7l-3.52-.65v-.62h9.79v.6zM309 92.86l-.71 6.27h-15v-.63l2.78-.71V76.37l-2.78-.71v-.57h13.82v.34l.1 4.77H307c-.16-.83-.31-1.51-.46-2s-.35-1.2-.59-2h-6.36v9.72h4.88l.8-3h.24l-.07 3.58c0 .42 0 1.13.07 2.12s.07 1.52.07 1.58h-.2l-.89-3.28h-4.92v11h7.54q.37-.94.78-2.07c.27-.75.58-1.73.92-3zM.91 108h1.67v14.56H.91V108zM29 108h1.76l9.67 12.15.07-.1V108h1.62v14.56h-1.78l-9.69-12.26h-.1l.1 12.28H29V108zM79.94 111.89h-1.78a2.8 2.8 0 0 0-1.28-2.13 5.47 5.47 0 0 0-3.06-.75 5.93 5.93 0 0 0-3.2.73 2.25 2.25 0 0 0-1.16 2 1.73 1.73 0 0 0 .83 1.56 11.12 11.12 0 0 0 3.57 1l.63.1a11.06 11.06 0 0 1 4.31 1.34 3.22 3.22 0 0 1 1 1.18 3.31 3.31 0 0 1 .37 1.53 4 4 0 0 1-1.72 3.3A7.12 7.12 0 0 1 74 123a7.73 7.73 0 0 1-4.71-1.29 4.78 4.78 0 0 1-1.92-3.65h1.86a3.13 3.13 0 0 0 1.28 2.55 5.36 5.36 0 0 0 3.34.95 5.48 5.48 0 0 0 3.19-.87 2.55 2.55 0 0 0 1.26-2.15 2 2 0 0 0-.91-1.78 11.51 11.51 0 0 0-3.9-1.08l-.35-.06a11.7 11.7 0 0 1-3.88-1.09 3.5 3.5 0 0 1-1.23-1.2 3 3 0 0 1-.42-1.57 3.58 3.58 0 0 1 1.65-3 7.28 7.28 0 0 1 4.32-1.17 7.89 7.89 0 0 1 4.48 1.1 4.27 4.27 0 0 1 1.88 3.2zM105.55 108h1.7v8.31a14 14 0 0 0 .13 2.29 3.43 3.43 0 0 0 .43 1.19 3.2 3.2 0 0 0 1.59 1.27 7 7 0 0 0 2.63.44 7.08 7.08 0 0 0 2.65-.44 3.13 3.13 0 0 0 1.59-1.27 3.45 3.45 0 0 0 .42-1.14 11.9 11.9 0 0 0 .12-2V108h1.7v9.21a5.47 5.47 0 0 1-1.63 4.32 8.85 8.85 0 0 1-9.69 0 5.48 5.48 0 0 1-1.62-4.33V108zM144.8 108h6.12a6.6 6.6 0 0 1 3.87 1 3.18 3.18 0 0 1 1.38 2.75 3.33 3.33 0 0 1-.83 2.34 3.51 3.51 0 0 1-2.29 1.08 3.12 3.12 0 0 1 2.18.68 2.77 2.77 0 0 1 .69 2.09v.74a12 12 0 0 0 .2 2.67 2.39 2.39 0 0 0 .71 1.21h-2.09a3.11 3.11 0 0 1-.45-1 5.42 5.42 0 0 1-.14-1.36v-1.32a3.56 3.56 0 0 0-.52-2.35 2.9 2.9 0 0 0-2-.52h-5.09v6.5h-1.67V108h-.07zm1.67 1.4v5.26h4.28a4.8 4.8 0 0 0 2.82-.68 2.35 2.35 0 0 0 .94-2 2.14 2.14 0 0 0-1-1.88 5 5 0 0 0-2.78-.66h-4.28zM186.56 108h1.82l6.56 14.56h-1.82l-1.48-3.32h-8.37l-1.5 3.32H180zm.9 1.68l-3.58 8.19h7.17l-3.56-8.19zM219.35 108h1.76l9.67 12.15.06-.1V108h1.65v14.56h-1.78L221 110.3h-.1l.1 12.28h-1.67V108zM272.64 112.31h-1.87a4.36 4.36 0 0 0-1.76-2.41 5.57 5.57 0 0 0-3.15-.84 5.65 5.65 0 0 0-4.31 1.78 6.4 6.4 0 0 0-1.67 4.58 6 6 0 0 0 1.69 4.39 5.84 5.84 0 0 0 4.34 1.71 5.58 5.58 0 0 0 3.4-1 3.72 3.72 0 0 0 1.56-2.63h1.89a5.42 5.42 0 0 1-2.2 3.75 8 8 0 0 1-4.81 1.34 9.05 9.05 0 0 1-3-.48 6.55 6.55 0 0 1-2.32-1.32 7.58 7.58 0 0 1-1.84-2.63 8.31 8.31 0 0 1-.64-3.27 8.54 8.54 0 0 1 .53-3 7.38 7.38 0 0 1 1.52-2.38 6.59 6.59 0 0 1 2.46-1.68 8.48 8.48 0 0 1 3.19-.59 8 8 0 0 1 4.54 1.18 6.36 6.36 0 0 1 2.45 3.5zM298.15 108h9.76v1.4h-8.06v4.65H307v1.42h-7.14v5.69h8.25v1.4h-10V108zM316.5 75.22H315v-.54h3.68v.55h-1.52v4.43h-.66v-4.44zM323.39 77.47c0-.69-.08-1.54-.08-2.15-.18.58-.38 1.2-.63 1.89l-.86 2.41h-.49l-.81-2.37c-.24-.71-.43-1.34-.57-1.93 0 .62 0 1.45-.1 2.2l-.13 2.13h-.61l.35-5h.82l.85 2.41c.21.61.37 1.16.5 1.68.13-.5.31-1 .53-1.68l.89-2.41h.77l.31 5h-.64z" fill="#231f20" /></svg>
